# xmcd
#
# Track frame offsets: 
#        150
#        12790
#        23258
#        38729
#        56526
#        66249
#        75336
#        90220
#        98852
#        114391
#        125894
#        135027
#        145419
#        160865
#        175231
#        190932
#        201383
#        212159
#        222433
#        240345
#
# Disc length: 3398 seconds
#
# Revision: 0
# Processed by: cddbd v1.5.2PL0 Copyright (c) Steve Scherf et al.
# Submitted via: ExactAudioCopy v1.1
#
DISCID=060d4414
DTITLE=Katastroof - 40 Jaar Katastroof - CD 2
DYEAR=2017
DGENRE=Folklore
TTITLE0=Mega-Bink
TTITLE1=Blote Wijven
TTITLE2=Een Bus Vol Ollanders
TTITLE3=Johnny
TTITLE4=Ik Mis Oe
TTITLE5=Hetero-Man
TTITLE6=Ik Darf Ni Meer Nor Huis
TTITLE7=Jongens En Maskes
TTITLE8=Den Boom In
TTITLE9=Zo Zat Als 100.000 Man
TTITLE10=De Man Is Minderwaardig
TTITLE11=De Kabouterkes
TTITLE12=Heel De Wereld Stinkt
TTITLE13=Maandagmorgen
TTITLE14=In Het Bed Van Tant' Jeanine
TTITLE15=Robert-Song
TTITLE16=Spauwen
TTITLE17=Tristige Plant
TTITLE18=Paterkesdans
TTITLE19=De Zeun Van Meneer Pastoor
EXTD=
EXTT0=
EXTT1=
EXTT2=
EXTT3=
EXTT4=
EXTT5=
EXTT6=
EXTT7=
EXTT8=
EXTT9=
EXTT10=
EXTT11=
EXTT12=
EXTT13=
EXTT14=
EXTT15=
EXTT16=
EXTT17=
EXTT18=
EXTT19=
PLAYORDER=
